<svg width="24" height="24" viewBox="0 0 24 24" fill="none" xmlns="http://www.w3.org/2000/svg">
<g id="Frame" clip-path="url(#clip0_96_55)">
<path id="Vector" d="M12 24C18.6274 24 24 18.6274 24 12C24 5.37258 18.6274 0 12 0C5.37258 0 0 5.37258 0 12C0 18.6274 5.37258 24 12 24Z" fill="#F7FBFF"/>
<g id="Group">
<path id="Vector_2" d="M8.35994 9.15329C8.64398 9.04259 8.72598 8.57243 8.54309 8.10315C8.36021 7.63386 7.98169 7.34317 7.69765 7.45387C7.41361 7.56456 7.33161 8.03473 7.5145 8.50401C7.69738 8.97329 8.0759 9.26398 8.35994 9.15329Z" fill="#FEE5DA"/>
<path id="Vector_3" d="M16.3168 8.46326C16.4997 7.99398 16.4177 7.52381 16.1336 7.41312C15.8496 7.30242 15.4711 7.59312 15.2882 8.0624C15.1053 8.53168 15.1873 9.00185 15.4713 9.11254C15.7554 9.22324 16.1339 8.93254 16.3168 8.46326Z" fill="#FEE5DA"/>
<path id="Vector_4" d="M14.0641 14.2686C14.0641 14.2686 13.7161 15.7566 11.9881 15.7566C10.2481 15.7566 9.91211 14.2686 9.91211 14.2686V12.1206H14.0641V14.2686Z" fill="#FFECE4"/>
<path id="Vector_5" d="M14.0641 12.1206H9.91211V12.7806C10.1881 12.9966 10.5481 13.2486 10.9801 13.4886C11.9521 14.0406 12.3361 13.8246 13.0441 13.4886C13.3921 13.3206 13.7641 13.0446 14.0641 12.7926V12.1206Z" fill="#FEE5DA"/>
<path id="Vector_6" d="M14.4001 4.04444C14.4001 4.04444 12.1201 2.26844 9.15605 4.33244C9.15605 4.33244 7.78805 5.16044 8.20805 8.71244C8.20805 8.71244 8.20805 10.7644 9.33605 11.6644C9.33605 11.6644 9.98405 12.2884 10.9561 12.8404C11.9281 13.3924 12.3121 13.1764 13.0201 12.8404C13.7521 12.4924 14.628 11.6284 14.628 11.6284C14.628 11.6284 15.5881 11.0524 15.7441 8.59244C15.9001 6.03644 15.9001 4.53644 14.4001 4.04444Z" fill="#FFECE4"/>
<path id="Vector_7" d="M13.6441 2.47217H10.8481C10.2841 2.47217 9.8281 2.85617 9.6721 3.38417C8.5801 3.40817 7.7041 4.29617 7.7041 5.38817V6.61217C7.7041 7.70417 8.5921 8.59217 9.6841 8.59217H10.0921H12.9241H14.2441C15.3601 8.59217 16.2481 7.69217 16.2481 6.58817V5.08817C16.2721 3.64817 15.0961 2.47217 13.6441 2.47217Z" fill="#D3D3D3"/>
<path id="Vector_8" d="M14.076 5.24463H9.85202C8.90402 5.24463 8.12402 6.01263 8.12402 6.97263V7.83663H15.792V6.97263C15.804 6.02463 15.036 5.24463 14.076 5.24463Z" fill="#FFECE4"/>
<path id="Vector_9" d="M8.13599 7.83594L8.48399 8.75994H15.432L15.804 7.83594H8.13599Z" fill="#FFECE4"/>
</g>
<path id="Vector_10" d="M14.376 13.644L12 15.54L9.61195 13.704C9.61195 13.704 6.58796 15.168 4.81196 16.608C4.81196 16.608 3.86396 19.368 3.80396 20.64C5.95195 22.68 8.85595 23.94 12.06 23.94C15.24 23.94 18.132 22.692 20.28 20.676L20.328 20.58C20.328 20.58 19.524 17.448 19.056 16.464C19.056 16.476 15.96 14.244 14.376 13.644Z" fill="#1262D0"/>
<path id="Vector_11" d="M13.4519 16.8118L15.3119 14.0878C14.9759 13.9078 14.6399 13.7398 14.3639 13.6318L11.9999 15.5398L9.61195 13.7038C9.61195 13.7038 9.17995 13.9198 8.54395 14.2558L8.57995 14.3278L10.5839 16.9198L12.0239 15.5398L13.4519 16.8118Z" fill="#FAFAFA"/>
<path id="Vector_12" d="M23.8286 12C23.8286 18.5327 18.5327 23.8286 12 23.8286C5.46726 23.8286 0.171429 18.5327 0.171429 12C0.171429 5.46726 5.46726 0.171429 12 0.171429C18.5327 0.171429 23.8286 5.46726 23.8286 12Z" stroke="url(#paint0_linear_96_55)" stroke-width="0.342857"/>
</g>
<defs>
<linearGradient id="paint0_linear_96_55" x1="24" y1="12" x2="-4.14895e-08" y2="12" gradientUnits="userSpaceOnUse">
<stop stop-color="#51B2DD"/>
<stop offset="0.545" stop-color="#0089ED"/>
<stop offset="1" stop-color="#9773BD"/>
</linearGradient>
<clipPath id="clip0_96_55">
<rect width="24" height="24" fill="white"/>
</clipPath>
</defs>
</svg>
